<?xml version="1.0" encoding="UTF-8" standalone="no"?>
<svg
   id="Layer_1"
   data-name="Layer 1"
   viewBox="0 0 390 553.00003"
   version="1.1"
   sodipodi:docname="catarse.svg"
   width="390"
   height="553"
   inkscape:version="1.3 (0e150ed6c4, 2023-07-21)"
   xmlns:inkscape="http://www.inkscape.org/namespaces/inkscape"
   xmlns:sodipodi="http://sodipodi.sourceforge.net/DTD/sodipodi-0.dtd"
   xmlns="http://www.w3.org/2000/svg"
   xmlns:svg="http://www.w3.org/2000/svg">
  <sodipodi:namedview
     id="namedview14"
     pagecolor="#ffffff"
     bordercolor="#000000"
     borderopacity="0.25"
     inkscape:showpageshadow="2"
     inkscape:pageopacity="0.0"
     inkscape:pagecheckerboard="0"
     inkscape:deskcolor="#d1d1d1"
     inkscape:zoom="0.62686455"
     inkscape:cx="356.53635"
     inkscape:cy="212.96467"
     inkscape:window-width="1366"
     inkscape:window-height="699"
     inkscape:window-x="0"
     inkscape:window-y="32"
     inkscape:window-maximized="1"
     inkscape:current-layer="Layer_1" />
  <defs
     id="defs1">
    <style
       id="style1">&#10;      .cls-1 {&#10;        fill: #272b30;&#10;      }&#10;&#10;      .cls-1, .cls-2 {&#10;        stroke-width: 0px;&#10;      }&#10;&#10;      .cls-2 {&#10;        fill: #fff;&#10;      }&#10;    </style>
  </defs>
  <g
     id="g13"
     transform="matrix(2.4523595,0,0,2.4523595,-778.59387,-229.41823)"
     style="fill:#ffffff">
    <path
       class="cls-2"
       d="m 456.45,180.17 c 2.12,-24.68 -5.82,-49.09 -22.35,-68.74 -12.49,-14.86 -21.86,-17.27 -27.81,-17.78 -0.83,-0.07 -1.66,-0.1 -2.48,-0.1 -3.3,0 -6.53,0.56 -9.6,1.68 -7.27,2.62 -13.19,8.09 -16.24,14.99 -4.91,11.14 -2.92,28.47 13.05,40.22 22.5,16.52 47.81,40.45 45.49,79.61 11.35,-14.22 18.35,-31.63 19.94,-49.88 z"
       id="path8"
       style="fill:#ffffff" />
    <path
       class="cls-2"
       d="m 332.09,284.02 c -3.41,-12.71 -2.37,-26.25 2.84,-38.28 -0.71,-5.51 -0.38,-11.36 1.6,-17.52 -6.28,4.66 -11.35,10.85 -14.7,18.02 -5.31,11.44 -5.77,24.54 -1.27,36.86 3.32,9.11 7.19,11.77 9.82,13 1.79,0.83 3.69,1.25 5.66,1.26 h 0.02 c 0.51,0 1,-0.09 1.5,-0.15 -2.33,-4.15 -4.21,-8.55 -5.47,-13.21 z"
       id="path9"
       style="fill:#ffffff" />
    <path
       class="cls-2"
       d="m 373.61,306.77 c -11.83,-8.28 -20.51,-20.41 -24.59,-34.2 -4.68,-4.3 -8.67,-9.71 -11.37,-16.68 -2.23,8.68 -2.21,17.86 0.14,26.59 3.64,13.51 12.57,24.92 25.15,32.17 5.25,3.03 9.89,4.56 13.78,4.56 1.32,0 2.56,-0.17 3.9,-0.52 2.14,-0.59 4.09,-1.6 5.78,-3.01 0.55,-0.45 1.01,-0.98 1.47,-1.5 -5.02,-1.86 -9.81,-4.31 -14.25,-7.4 z"
       id="path10"
       style="fill:#ffffff" />
    <path
       class="cls-2"
       d="m 424.47,296.52 c -2.07,0.19 -4.17,0.28 -6.24,0.28 -13.8,0 -27.12,-4.07 -38.6,-11.74 -7.88,-0.32 -15.16,-2.43 -22.07,-6.4 4.27,9.28 10.98,17.35 19.44,23.27 9.67,6.77 21.18,10.34 33.25,10.34 v 0 c 3.61,0 7.28,-0.32 10.88,-0.96 11.76,-2.09 15.88,-6.26 17.94,-9.22 1.43,-2.05 2.37,-4.32 2.8,-6.73 0.17,-0.95 0.21,-1.91 0.23,-2.86 -5.65,2.07 -11.54,3.48 -17.63,4.02 z"
       id="path11"
       style="fill:#ffffff" />
    <path
       class="cls-2"
       d="m 474.2,238.79 c -0.61,-1.06 -1.33,-2.05 -2.11,-2.95 -3.33,5.88 -7.38,11.35 -12.22,16.2 -12.25,12.28 -28.43,20.03 -45.65,21.95 -6.51,5.01 -14.39,8.79 -24.09,10.37 8.71,4.3 18.28,6.54 28.11,6.54 1.9,0 3.82,-0.09 5.72,-0.26 17.02,-1.5 32.65,-9.82 44.03,-23.41 8.51,-10.16 9.02,-16.67 8.67,-20.67 -0.26,-2.77 -1.08,-5.38 -2.45,-7.76 z"
       id="path12"
       style="fill:#ffffff" />
    <path
       class="cls-2"
       d="m 468.93,173.06 c -1.87,-1.85 -4.01,-3.29 -6.35,-4.33 0.15,3.97 0.08,7.95 -0.26,11.95 -1.95,22.39 -11.58,43.54 -27.11,59.74 -1.99,9.04 -6.09,18 -13.49,26.36 12.79,-2.99 24.62,-9.52 33.97,-18.9 13.32,-13.35 20.65,-31.49 20.63,-51.06 -0.01,-14.7 -4.23,-20.6 -7.39,-23.75 z"
       id="path13"
       style="fill:#ffffff" />
  </g>
</svg>
