<?xml version="1.0" encoding="UTF-8" standalone="no"?>
<!-- Generator: Adobe Illustrator 26.0.3, SVG Export Plug-In . SVG Version: 6.00 Build 0)  -->

<svg
   version="1.1"
   x="0px"
   y="0px"
   viewBox="0 0 841 668.5"
   style="enable-background:new 0 0 841 668.5;"
   xml:space="preserve"
   id="svg119"
   sodipodi:docname="Voxels_logo_sign.svg"
   inkscape:version="1.3 (0e150ed6c4, 2023-07-21)"
   xmlns:inkscape="http://www.inkscape.org/namespaces/inkscape"
   xmlns:sodipodi="http://sodipodi.sourceforge.net/DTD/sodipodi-0.dtd"
   xmlns="http://www.w3.org/2000/svg"
   xmlns:svg="http://www.w3.org/2000/svg"><defs
   id="defs119">&#10;	&#10;&#10;		&#10;		&#10;		&#10;	</defs><sodipodi:namedview
   id="namedview119"
   pagecolor="#ffffff"
   bordercolor="#000000"
   borderopacity="0.25"
   inkscape:showpageshadow="2"
   inkscape:pageopacity="0.0"
   inkscape:pagecheckerboard="0"
   inkscape:deskcolor="#d1d1d1"
   inkscape:zoom="0.73747195"
   inkscape:cx="413.57505"
   inkscape:cy="354.58976"
   inkscape:window-width="1366"
   inkscape:window-height="699"
   inkscape:window-x="0"
   inkscape:window-y="0"
   inkscape:window-maximized="1"
   inkscape:current-layer="svg119" />&#10;<style
   type="text/css"
   id="style1">&#10;	.st0{display:none;}&#10;	.st1{display:inline;}&#10;	.st2{fill:#00EA00;}&#10;	.st3{fill:#FAFAFA;}&#10;	.st4{fill:#ADADAD;}&#10;	.st5{fill:#666666;}&#10;	.st6{fill:url(#SVGID_1_);}&#10;	.st7{fill:url(#SVGID_00000151507380019743808330000007223122924279598511_);}&#10;	.st8{fill:url(#SVGID_00000133496326542166383100000018386231484374016901_);}&#10;	.st9{fill:url(#SVGID_00000126315229691737451990000018300118271935159202_);}&#10;	.st10{fill:url(#SVGID_00000059282780381147776180000006189658192871085240_);}&#10;	.st11{fill:url(#SVGID_00000121966548549003574870000002029375064797949079_);}&#10;	.st12{fill:url(#SVGID_00000181783727008034799520000007232002517680365479_);}&#10;	.st13{fill:url(#SVGID_00000003792758900592717340000002324744361255512748_);}&#10;	.st14{fill:url(#SVGID_00000061459039169990055290000009075260363750115216_);}&#10;	.st15{fill:url(#SVGID_00000046301448440828007640000003365639515365637256_);}&#10;	.st16{fill:#808080;}&#10;	.st17{fill:url(#SVGID_00000130641522945751432540000006893114025960473490_);}&#10;	.st18{fill:url(#SVGID_00000134240207547181199040000018076366471259987341_);}&#10;	.st19{fill:url(#SVGID_00000042719437715520127770000006049185172225058969_);}&#10;	.st20{fill:url(#SVGID_00000095336476240863553570000011258866767564523401_);}&#10;	.st21{fill:url(#SVGID_00000173873681344463958470000005974946838722374538_);}&#10;	.st22{fill:url(#SVGID_00000111870264983978218200000000039036817992995248_);}&#10;	.st23{fill:#CCCCCC;}&#10;	.st24{fill:url(#SVGID_00000034072821480150892190000008782643158528353429_);}&#10;	.st25{clip-path:url(#SVGID_00000171718946820980022320000017089217087641676714_);}&#10;	.st26{clip-path:url(#SVGID_00000015353480709853207340000013723091903044083897_);}&#10;	.st27{fill:url(#SVGID_00000014604231709103789750000015532631618054059696_);}&#10;	.st28{fill:#00226F;}&#10;	.st29{clip-path:url(#SVGID_00000142884662321374839690000010779033835210990263_);}&#10;	.st30{clip-path:url(#SVGID_00000005268858823275592950000016110614350040373948_);}&#10;	.st31{clip-path:url(#SVGID_00000004538770793966648400000000633534463968947362_);}&#10;	.st32{clip-path:url(#SVGID_00000168082983562117859430000017005625448507318408_);}&#10;</style>&#10;<g
   id="fundo"
   class="st0">&#10;	<rect
   x="-539.5"
   y="-203.3"
   class="st1"
   width="1920"
   height="1080"
   id="rect1" />&#10;</g>&#10;<g
   id="g13"
   transform="translate(0,-163.18946)">&#10;			<path
   class="st2"
   d="M 49.4,622.1 H 12.3 v 34.4 h 41.4 v 10.3 H 0 v -95.5 h 51.6 v 10.3 H 12.3 v 30.2 h 37.1 z"
   id="path1" />&#10;			<path
   class="st2"
   d="m 69.3,616.9 c 0,-7.1 -0.1,-12.9 -0.6,-18.6 h 11 l 0.7,11.3 h 0.3 c 3.4,-6.5 11.3,-12.9 22.7,-12.9 9.5,0 24.2,5.7 24.2,29.2 v 40.9 h -12.5 v -39.5 c 0,-11 -4.1,-20.3 -15.9,-20.3 -8.2,0 -14.6,5.8 -16.7,12.7 -0.6,1.6 -0.8,3.7 -0.8,5.8 v 41.2 H 69.3 Z"
   id="path2" />&#10;			<path
   class="st2"
   d="m 162.3,578.6 v 19.7 h 17.8 v 9.5 h -17.8 v 37 c 0,8.5 2.4,13.3 9.3,13.3 3.3,0 5.7,-0.4 7.2,-0.9 l 0.6,9.3 c -2.4,1 -6.2,1.7 -11,1.7 -5.8,0 -10.5,-1.8 -13.5,-5.2 -3.5,-3.7 -4.8,-9.8 -4.8,-17.8 v -37.4 h -10.6 v -9.5 h 10.6 v -16.4 z"
   id="path3" />&#10;			<path
   class="st2"
   d="m 200.3,634.9 c 0.3,16.9 11,23.8 23.5,23.8 8.9,0 14.3,-1.6 19,-3.5 l 2.1,8.9 c -4.4,2 -11.9,4.2 -22.8,4.2 -21.1,0 -33.7,-13.9 -33.7,-34.6 0,-20.7 12.2,-37 32.2,-37 22.4,0 28.3,19.7 28.3,32.3 0,2.6 -0.3,4.5 -0.4,5.8 h -48.2 z m 36.5,-8.9 c 0.1,-7.9 -3.3,-20.3 -17.3,-20.3 -12.6,0 -18.1,11.6 -19.1,20.3 z"
   id="path4" />&#10;			<path
   class="st2"
   d="m 264.3,619.7 c 0,-8.1 -0.1,-15 -0.6,-21.4 h 10.9 l 0.4,13.5 h 0.6 c 3.1,-9.2 10.6,-15 19,-15 1.4,0 2.4,0.1 3.5,0.4 V 609 c -1.3,-0.3 -2.5,-0.4 -4.2,-0.4 -8.8,0 -15,6.7 -16.7,16 -0.3,1.7 -0.6,3.7 -0.6,5.8 v 36.5 h -12.3 z"
   id="path5" />&#10;			<path
   class="st2"
   d="m 329.1,578.6 v 19.7 h 17.8 v 9.5 h -17.8 v 37 c 0,8.5 2.4,13.3 9.3,13.3 3.3,0 5.7,-0.4 7.2,-0.9 l 0.6,9.3 c -2.4,1 -6.2,1.7 -11,1.7 -5.8,0 -10.5,-1.8 -13.5,-5.2 -3.5,-3.7 -4.8,-9.8 -4.8,-17.8 v -37.4 h -10.6 v -9.5 h 10.6 v -16.4 z"
   id="path6" />&#10;			<path
   class="st2"
   d="m 398.9,666.9 -1,-8.6 h -0.4 c -3.8,5.4 -11.2,10.2 -21,10.2 -13.9,0 -21,-9.8 -21,-19.7 0,-16.6 14.7,-25.6 41.2,-25.5 v -1.4 c 0,-5.7 -1.6,-15.9 -15.6,-15.9 -6.4,0 -13,2 -17.8,5.1 l -2.8,-8.2 c 5.7,-3.7 13.9,-6.1 22.5,-6.1 21,0 26.1,14.3 26.1,28 v 25.6 c 0,5.9 0.3,11.8 1.1,16.4 h -11.3 z m -1.8,-35 c -13.6,-0.3 -29,2.1 -29,15.4 0,8.1 5.4,11.9 11.8,11.9 8.9,0 14.6,-5.7 16.6,-11.5 0.4,-1.3 0.7,-2.7 0.7,-4 v -11.8 z"
   id="path7" />&#10;			<path
   class="st2"
   d="m 443.1,579.1 c 0.1,4.3 -3,7.6 -7.9,7.6 -4.4,0 -7.5,-3.4 -7.5,-7.6 0,-4.4 3.3,-7.8 7.8,-7.8 4.6,0 7.6,3.4 7.6,7.8 z m -13.9,87.8 v -68.6 h 12.5 v 68.6 z"
   id="path8" />&#10;			<path
   class="st2"
   d="m 462.4,616.9 c 0,-7.1 -0.1,-12.9 -0.6,-18.6 h 11 l 0.7,11.3 h 0.3 c 3.4,-6.5 11.3,-12.9 22.7,-12.9 9.5,0 24.2,5.7 24.2,29.2 v 40.9 h -12.5 v -39.5 c 0,-11 -4.1,-20.3 -15.9,-20.3 -8.2,0 -14.6,5.8 -16.7,12.7 -0.6,1.6 -0.8,3.7 -0.8,5.8 v 41.2 h -12.5 v -49.8 z"
   id="path9" />&#10;			<path
   class="st2"
   d="m 541,616.9 c 0,-7.1 -0.1,-12.9 -0.6,-18.6 h 10.9 l 0.6,11 h 0.4 c 3.8,-6.5 10.2,-12.6 21.5,-12.6 9.3,0 16.4,5.7 19.4,13.7 h 0.3 c 2.1,-3.8 4.8,-6.8 7.6,-8.9 4.1,-3.1 8.6,-4.8 15.2,-4.8 9.1,0 22.5,5.9 22.5,29.7 v 40.4 H 626.6 V 628 c 0,-13.2 -4.8,-21.1 -14.9,-21.1 -7.1,0 -12.6,5.2 -14.7,11.3 -0.6,1.7 -1,4 -1,6.2 v 42.4 h -12.2 v -41.1 c 0,-10.9 -4.8,-18.8 -14.3,-18.8 -7.8,0 -13.5,6.2 -15.4,12.5 -0.7,1.8 -1,4 -1,6.1 v 41.4 H 541 Z"
   id="path10" />&#10;			<path
   class="st2"
   d="m 666.1,634.9 c 0.3,16.9 11,23.8 23.5,23.8 8.9,0 14.3,-1.6 19,-3.5 l 2.1,8.9 c -4.4,2 -11.9,4.2 -22.8,4.2 -21.1,0 -33.7,-13.9 -33.7,-34.6 0,-20.7 12.2,-37 32.2,-37 22.4,0 28.3,19.7 28.3,32.3 0,2.6 -0.3,4.5 -0.4,5.8 h -48.2 z m 36.5,-8.9 c 0.1,-7.9 -3.3,-20.3 -17.3,-20.3 -12.6,0 -18.1,11.6 -19.1,20.3 z"
   id="path11" />&#10;			<path
   class="st2"
   d="m 730.1,616.9 c 0,-7.1 -0.1,-12.9 -0.6,-18.6 h 11 l 0.7,11.3 h 0.3 c 3.4,-6.5 11.3,-12.9 22.7,-12.9 9.5,0 24.2,5.7 24.2,29.2 v 40.9 H 776 v -39.5 c 0,-11 -4.1,-20.3 -15.9,-20.3 -8.2,0 -14.6,5.8 -16.7,12.7 -0.6,1.6 -0.8,3.7 -0.8,5.8 v 41.2 h -12.5 z"
   id="path12" />&#10;			<path
   class="st2"
   d="m 823.2,578.6 v 19.7 H 841 v 9.5 h -17.8 v 37 c 0,8.5 2.4,13.3 9.3,13.3 3.3,0 5.7,-0.4 7.2,-0.9 l 0.6,9.3 c -2.4,1 -6.2,1.7 -11,1.7 -5.8,0 -10.5,-1.8 -13.5,-5.2 -3.5,-3.7 -4.8,-9.8 -4.8,-17.8 v -37.4 h -10.6 v -9.5 H 811 v -16.4 z"
   id="path13" />&#10;		</g><g
   id="g91"
   transform="translate(0,-163.18946)">&#10;			<g
   id="g19">&#10;				<polygon
   class="st3"
   points="8.2,305.4 34.3,305.4 81.1,475.8 143.3,305.4 169.7,305.4 92.7,506.7 66.6,506.7 "
   id="polygon13" />&#10;				<polygon
   class="st4"
   points="81.1,475.8 34.3,305.4 84.5,319 108,402.3 "
   id="polygon14" />&#10;				<polygon
   class="st5"
   points="92.7,506.7 66.6,506.7 112.4,519.7 138.8,519.7 "
   id="polygon15" />&#10;				<linearGradient
   id="SVGID_1_"
   gradientUnits="userSpaceOnUse"
   x1="152.7818"
   y1="519.72479"
   x2="152.7818"
   y2="305.3699">&#10;					<stop
   offset="0"
   style="stop-color:#ADADAD"
   id="stop15" />&#10;					<stop
   offset="8.230096e-02"
   style="stop-color:#A6A6A6"
   id="stop16" />&#10;					<stop
   offset="0.3994"
   style="stop-color:#919191"
   id="stop17" />&#10;					<stop
   offset="0.7089"
   style="stop-color:#848484"
   id="stop18" />&#10;					<stop
   offset="1"
   style="stop-color:#808080"
   id="stop19" />&#10;				</linearGradient>&#10;				<polygon
   class="st6"
   points="138.8,519.7 92.7,506.7 169.7,305.4 212.9,319 "
   id="polygon19"
   style="fill:url(#SVGID_1_)" />&#10;			</g>&#10;			<g
   id="g37">&#10;				<g
   id="g31">&#10;					&#10;						<linearGradient
   id="SVGID_00000007395450513054996780000012745827714581599619_"
   gradientUnits="userSpaceOnUse"
   x1="241.1617"
   y1="360.3335"
   x2="241.1617"
   y2="360.3345">&#10;						<stop
   offset="0"
   style="stop-color:#ADADAD"
   id="stop20" />&#10;						<stop
   offset="0.3361"
   style="stop-color:#8D8D8D"
   id="stop21" />&#10;						<stop
   offset="0.5314"
   style="stop-color:#808080"
   id="stop22" />&#10;						<stop
   offset="0.9967"
   style="stop-color:#666666"
   id="stop23" />&#10;					</linearGradient>&#10;					<polygon
   style="fill:url(#SVGID_00000007395450513054996780000012745827714581599619_)"
   points=""
   id="polygon23" />&#10;					&#10;						<linearGradient
   id="SVGID_00000024702585062615856390000006187283555664195230_"
   gradientUnits="userSpaceOnUse"
   x1="278.55731"
   y1="365.8233"
   x2="278.55731"
   y2="522.55829">&#10;						<stop
   offset="0"
   style="stop-color:#ADADAD"
   id="stop24" />&#10;						<stop
   offset="0.3361"
   style="stop-color:#8D8D8D"
   id="stop25" />&#10;						<stop
   offset="0.5314"
   style="stop-color:#808080"
   id="stop26" />&#10;						<stop
   offset="0.9967"
   style="stop-color:#666666"
   id="stop27" />&#10;					</linearGradient>&#10;					<path
   style="fill:url(#SVGID_00000024702585062615856390000006187283555664195230_)"
   d="m 295.2,373.7 v 0 h -0.1 c -2.8,-0.9 -5.7,-1.6 -8.6,-2.1 l -23,-5.7 c 23.2,10.1 39.3,33.4 39.3,70.4 0,42.1 -30.7,76.2 -68.6,76.2 -6.3,0 -12.2,-0.8 -17.8,-2.3 l 37.1,9.9 c 0.5,0.1 1,0.3 1.4,0.4 l 0.9,0.2 v 0 c 5.2,1.3 10.6,1.9 16.4,1.9 37.9,0 68.6,-34.1 68.6,-76.2 0,-40.3 -19,-64.3 -45.6,-72.7 z"
   id="path27" />&#10;					&#10;						<linearGradient
   id="SVGID_00000098188676884630976290000009427547396677834890_"
   gradientUnits="userSpaceOnUse"
   x1="215.5152"
   y1="509.85989"
   x2="215.5152"
   y2="509.9201">&#10;						<stop
   offset="0"
   style="stop-color:#ADADAD"
   id="stop28" />&#10;						<stop
   offset="0.3361"
   style="stop-color:#8D8D8D"
   id="stop29" />&#10;						<stop
   offset="0.5314"
   style="stop-color:#808080"
   id="stop30" />&#10;						<stop
   offset="0.9967"
   style="stop-color:#666666"
   id="stop31" />&#10;					</linearGradient>&#10;					<path
   style="fill:url(#SVGID_00000098188676884630976290000009427547396677834890_)"
   d="m 215.4,509.9 v 0 l 0.2,0.1 c 0,-0.1 -0.1,-0.1 -0.2,-0.1 z"
   id="path31" />&#10;				</g>&#10;				&#10;					<linearGradient
   id="SVGID_00000126302164681927020700000000403290348363452569_"
   gradientUnits="userSpaceOnUse"
   x1="228.4402"
   y1="491.1871"
   x2="228.4402"
   y2="381.26639">&#10;					<stop
   offset="0"
   style="stop-color:#ADADAD"
   id="stop32" />&#10;					<stop
   offset="8.230096e-02"
   style="stop-color:#A6A6A6"
   id="stop33" />&#10;					<stop
   offset="0.3994"
   style="stop-color:#919191"
   id="stop34" />&#10;					<stop
   offset="0.7089"
   style="stop-color:#848484"
   id="stop35" />&#10;					<stop
   offset="1"
   style="stop-color:#808080"
   id="stop36" />&#10;				</linearGradient>&#10;				<path
   style="fill:url(#SVGID_00000126302164681927020700000000403290348363452569_)"
   d="m 234.9,381.3 c -23.5,0 -42.5,24.6 -42.5,55 0,30.4 16.9,55 42.5,55 4.2,0 8.4,-0.8 12.2,-2.3 v 0 c -8.8,-10.1 -13.9,-25 -13.9,-41.6 0,-25.3 13.2,-46.6 31.2,-53 -7.6,-8.8 -18,-13.1 -29.5,-13.1 z"
   id="path36" />&#10;				<path
   class="st3"
   d="m 234.1,360 c -37.9,0 -68.6,34.1 -68.6,76.2 0,42.1 27.3,76.2 68.6,76.2 37.9,0 68.6,-34.1 68.6,-76.2 C 302.7,385 272,360 234.1,360 Z m 0.8,131.2 c -25.6,0 -42.5,-24.6 -42.5,-55 0,-30.4 19,-55 42.5,-55 23.5,0 42.5,18 42.5,55 0,30.4 -19,55 -42.5,55 z"
   id="path37" />&#10;			</g>&#10;			<g
   id="g43">&#10;				&#10;					<linearGradient
   id="SVGID_00000177449218042788093790000015318421719889253037_"
   gradientUnits="userSpaceOnUse"
   x1="631.91711"
   y1="302.7648"
   x2="631.91711"
   y2="519.3526">&#10;					<stop
   offset="0"
   style="stop-color:#ADADAD"
   id="stop37" />&#10;					<stop
   offset="8.230096e-02"
   style="stop-color:#A6A6A6"
   id="stop38" />&#10;					<stop
   offset="0.3994"
   style="stop-color:#919191"
   id="stop39" />&#10;					<stop
   offset="0.7089"
   style="stop-color:#848484"
   id="stop40" />&#10;					<stop
   offset="1"
   style="stop-color:#808080"
   id="stop41" />&#10;				</linearGradient>&#10;				<polygon
   style="fill:url(#SVGID_00000177449218042788093790000015318421719889253037_)"
   points="658,309.7 636.8,302.8 630.4,512.4 605.9,512.4 627.1,519.4 651.6,519.4 "
   id="polygon41" />&#10;				<polygon
   class="st5"
   points="627.1,519.4 605.9,512.4 630.4,512.4 651.6,519.4 "
   id="polygon42" />&#10;				<polygon
   class="st3"
   points="611.4,302.8 605.9,512.4 630.4,512.4 636.8,302.8 "
   id="polygon43" />&#10;			</g>&#10;			<g
   id="g58">&#10;				&#10;					<linearGradient
   id="SVGID_00000079446613983678453130000008850151398144535452_"
   gradientUnits="userSpaceOnUse"
   x1="721.66718"
   y1="387.63361"
   x2="721.66718"
   y2="430.38159">&#10;					<stop
   offset="0"
   style="stop-color:#ADADAD"
   id="stop43" />&#10;					<stop
   offset="0.3361"
   style="stop-color:#8D8D8D"
   id="stop44" />&#10;					<stop
   offset="0.5314"
   style="stop-color:#808080"
   id="stop45" />&#10;					<stop
   offset="0.9967"
   style="stop-color:#666666"
   id="stop46" />&#10;				</linearGradient>&#10;				<path
   style="fill:url(#SVGID_00000079446613983678453130000008850151398144535452_)"
   d="m 733.8,393.7 c 5.1,0 9.8,0.7 14,1.8 -5.7,-3.5 -15.7,-7.9 -28.4,-7.9 -15.3,0 -23.8,9 -23.8,19.7 0,12 7.7,15.7 26.2,22.9 0.1,0.1 0.3,0.1 0.4,0.2 -8.5,-4.3 -12.2,-8.6 -12.2,-16.9 0,-10.8 8.5,-19.8 23.8,-19.8 z"
   id="path46" />&#10;				&#10;					<linearGradient
   id="SVGID_00000039105575491307519190000010141682937013661612_"
   gradientUnits="userSpaceOnUse"
   x1="679.65839"
   y1="487.3667"
   x2="679.65839"
   y2="494.621">&#10;					<stop
   offset="0"
   style="stop-color:#ADADAD"
   id="stop47" />&#10;					<stop
   offset="0.3361"
   style="stop-color:#8D8D8D"
   id="stop48" />&#10;					<stop
   offset="0.5314"
   style="stop-color:#808080"
   id="stop49" />&#10;					<stop
   offset="0.9967"
   style="stop-color:#666666"
   id="stop50" />&#10;				</linearGradient>&#10;				<path
   style="fill:url(#SVGID_00000039105575491307519190000010141682937013661612_)"
   d="m 685.9,493.5 -14.4,-6.1 v 0 0 c 3.9,2.6 9.8,5.3 16.3,7.3 -0.7,-0.5 -1.3,-0.9 -1.9,-1.2 z"
   id="path50" />&#10;				&#10;					<linearGradient
   id="SVGID_00000114063192387466940700000013119698980527224723_"
   gradientUnits="userSpaceOnUse"
   x1="725.23853"
   y1="434.22821"
   x2="725.23853"
   y2="523.375">&#10;					<stop
   offset="0"
   style="stop-color:#ADADAD"
   id="stop51" />&#10;					<stop
   offset="0.3361"
   style="stop-color:#8D8D8D"
   id="stop52" />&#10;					<stop
   offset="0.5314"
   style="stop-color:#808080"
   id="stop53" />&#10;					<stop
   offset="0.9967"
   style="stop-color:#666666"
   id="stop54" />&#10;				</linearGradient>&#10;				<path
   style="fill:url(#SVGID_00000114063192387466940700000013119698980527224723_)"
   d="m 736.2,436.3 c -1.9,-0.7 -3.7,-1.4 -5.3,-2.1 18.1,9.1 25.8,21 25.8,39.7 0,25.4 -16.1,43.4 -49.9,43.4 -9.4,0 -19,-1.4 -27.3,-3.9 v 0.1 c 10,6 26.1,9.9 41.7,9.9 33.8,0 49.9,-17.9 49.9,-43.4 0,-21.5 -10.2,-34.1 -34.9,-43.7 z"
   id="path54" />&#10;				<g
   id="g55">&#10;					<path
   class="st3"
   d="m 671.5,487.4 c 7.7,5.1 22.9,10.5 35.8,10.5 18.8,0 24.3,-9.6 24.3,-21.5 0,-12.6 -4.8,-19.4 -24,-26.6 -25.6,-9.3 -36.8,-22 -36.8,-39.3 0,-23.3 18.5,-42.5 49.1,-42.5 14.4,0 27.1,4.2 35,9 l -6.5,19.1 c -5.6,-3.6 -15.9,-8.4 -29.1,-8.4 -15.3,0 -23.8,9 -23.8,19.7 0,12 7.7,15.7 26.2,22.9 24.7,9.6 34.9,22.1 34.9,43.7 0,25.4 -16.1,43.4 -49.9,43.4 -15.6,0 -31.7,-3.9 -41.7,-9.9 z"
   id="path55" />&#10;				</g>&#10;				&#10;					<linearGradient
   id="SVGID_00000109012494069167568250000018016662070430786972_"
   gradientUnits="userSpaceOnUse"
   x1="758.96283"
   y1="376.86938"
   x2="758.96283"
   y2="402.10349">&#10;					<stop
   offset="0"
   style="stop-color:#ADADAD"
   id="stop55" />&#10;					<stop
   offset="0.3361"
   style="stop-color:#8D8D8D"
   id="stop56" />&#10;					<stop
   offset="0.5314"
   style="stop-color:#808080"
   id="stop57" />&#10;					<stop
   offset="0.9967"
   style="stop-color:#666666"
   id="stop58" />&#10;				</linearGradient>&#10;				<path
   style="fill:url(#SVGID_00000109012494069167568250000018016662070430786972_)"
   d="m 769.4,383 c -3.8,-2.3 -8.7,-4.5 -14.4,-6.1 l -6.4,18.9 v 0 0.1 0.1 l 14.4,6.1 z"
   id="path58" />&#10;			</g>&#10;			<g
   id="g65">&#10;				<g
   id="g60">&#10;					<polygon
   class="st4"
   points="422.8,444.9 470.8,376.2 440.6,367.5 392.6,436.2 437.7,512.4 412.3,511.8 439.5,519.2 469.1,519.4 "
   id="polygon58" />&#10;					<polygon
   class="st4"
   points="377.7,419.2 393.8,396.6 381.1,376.4 346.3,366.4 "
   id="polygon59" />&#10;					<polygon
   class="st4"
   points="337.5,510.1 310.6,509.5 347.2,519.4 373.1,518.9 395.8,485.4 375.6,453.1 "
   id="polygon60" />&#10;				</g>&#10;				<polygon
   class="st5"
   points="439.5,519.2 469.1,519.4 437.7,512.4 412.3,511.8 "
   id="polygon61" />&#10;				<polygon
   class="st3"
   points="337.5,510.1 375.6,453.1 412.3,511.8 412.3,511.8 437.7,512.4 392.6,436.2 440.6,367.5 414.6,367.2 377.7,419.2 346.3,366.4 319.3,366 362.1,436.2 310.6,509.5 "
   id="polygon62" />&#10;				<polygon
   class="st5"
   points="337.5,510.1 310.6,509.5 347.2,519.4 373.1,518.9 "
   id="polygon63" />&#10;				<polygon
   class="st16"
   points="440.6,367.5 392.6,436.2 422.8,444.9 470.8,376.2 "
   id="polygon64" />&#10;				<polygon
   class="st16"
   points="337.5,510.1 375.6,453.1 395.8,485.4 373.1,518.9 "
   id="polygon65" />&#10;			</g>&#10;			<g
   id="g90">&#10;				<g
   id="g88">&#10;					&#10;						<linearGradient
   id="SVGID_00000109013681422724239300000004689197778434335142_"
   gradientUnits="userSpaceOnUse"
   x1="525.51282"
   y1="365.28351"
   x2="525.51282"
   y2="365.2919">&#10;						<stop
   offset="0"
   style="stop-color:#ADADAD"
   id="stop65" />&#10;						<stop
   offset="0.3361"
   style="stop-color:#8D8D8D"
   id="stop66" />&#10;						<stop
   offset="0.5314"
   style="stop-color:#808080"
   id="stop67" />&#10;						<stop
   offset="0.9967"
   style="stop-color:#666666"
   id="stop68" />&#10;					</linearGradient>&#10;					<path
   style="fill:url(#SVGID_00000109013681422724239300000004689197778434335142_)"
   d="M 525.5,365.3 Z"
   id="path68" />&#10;					&#10;						<linearGradient
   id="SVGID_00000072267737021617704750000001785556580768771219_"
   gradientUnits="userSpaceOnUse"
   x1="491.29291"
   y1="509.4938"
   x2="491.29291"
   y2="509.521">&#10;						<stop
   offset="0"
   style="stop-color:#ADADAD"
   id="stop69" />&#10;						<stop
   offset="0.3361"
   style="stop-color:#8D8D8D"
   id="stop70" />&#10;						<stop
   offset="0.5314"
   style="stop-color:#808080"
   id="stop71" />&#10;						<stop
   offset="0.9967"
   style="stop-color:#666666"
   id="stop72" />&#10;					</linearGradient>&#10;					<path
   style="fill:url(#SVGID_00000072267737021617704750000001785556580768771219_)"
   d="M 491.3,509.5 Z"
   id="path72" />&#10;					&#10;						<linearGradient
   id="SVGID_00000013872051949398626910000014578573929355311806_"
   gradientUnits="userSpaceOnUse"
   x1="507.12601"
   y1="382.6828"
   x2="507.12601"
   y2="425.39029">&#10;						<stop
   offset="0"
   style="stop-color:#ADADAD"
   id="stop73" />&#10;						<stop
   offset="0.3361"
   style="stop-color:#8D8D8D"
   id="stop74" />&#10;						<stop
   offset="0.5314"
   style="stop-color:#808080"
   id="stop75" />&#10;						<stop
   offset="0.9967"
   style="stop-color:#666666"
   id="stop76" />&#10;					</linearGradient>&#10;					<path
   style="fill:url(#SVGID_00000013872051949398626910000014578573929355311806_)"
   d="m 476.4,425.4 h 29.3 c 2.2,-11.2 9.5,-33.8 32.2,-36.3 -5.2,-3.8 -12.4,-6.4 -22.5,-6.4 -35.7,0 -39,42.7 -39,42.7 z"
   id="path76" />&#10;					&#10;						<linearGradient
   id="SVGID_00000033329677904338646960000015028762912834232756_"
   gradientUnits="userSpaceOnUse"
   x1="561.29907"
   y1="488.18771"
   x2="561.29907"
   y2="488.3392">&#10;						<stop
   offset="0"
   style="stop-color:#ADADAD"
   id="stop77" />&#10;						<stop
   offset="0.3361"
   style="stop-color:#8D8D8D"
   id="stop78" />&#10;						<stop
   offset="0.5314"
   style="stop-color:#808080"
   id="stop79" />&#10;						<stop
   offset="0.9967"
   style="stop-color:#666666"
   id="stop80" />&#10;					</linearGradient>&#10;					<path
   style="fill:url(#SVGID_00000033329677904338646960000015028762912834232756_)"
   d="m 561.5,488.2 -0.4,0.2 c 0.2,-0.2 0.4,-0.2 0.4,-0.2 z"
   id="path80" />&#10;					&#10;						<linearGradient
   id="SVGID_00000134945582570436028270000010075014665569914045_"
   gradientUnits="userSpaceOnUse"
   x1="537.76538"
   y1="368.38431"
   x2="537.76538"
   y2="495.44229">&#10;						<stop
   offset="0"
   style="stop-color:#ADADAD"
   id="stop81" />&#10;						<stop
   offset="0.3361"
   style="stop-color:#8D8D8D"
   id="stop82" />&#10;						<stop
   offset="0.5314"
   style="stop-color:#808080"
   id="stop83" />&#10;						<stop
   offset="0.9967"
   style="stop-color:#666666"
   id="stop84" />&#10;					</linearGradient>&#10;					<path
   style="fill:url(#SVGID_00000134945582570436028270000010075014665569914045_)"
   d="m 555.1,371.9 v 0 l -15.7,-3.5 c 43.7,15.6 35.2,76.8 35.2,76.8 h -98.1 c 0,40.7 28.5,50.2 48.3,50.2 0.5,0 1,0 1.5,0 -11.8,-6.7 -21.4,-19.9 -21.4,-44.1 h 93.8 c -0.2,0 9.2,-70.4 -43.6,-79.4 z"
   id="path84" />&#10;					&#10;						<linearGradient
   id="SVGID_00000115515684043923898020000017899521380191987647_"
   gradientUnits="userSpaceOnUse"
   x1="547.90088"
   y1="488.18549"
   x2="547.90088"
   y2="520.57092">&#10;						<stop
   offset="0"
   style="stop-color:#ADADAD"
   id="stop85" />&#10;						<stop
   offset="0.3361"
   style="stop-color:#8D8D8D"
   id="stop86" />&#10;						<stop
   offset="0.5314"
   style="stop-color:#808080"
   id="stop87" />&#10;						<stop
   offset="0.9967"
   style="stop-color:#666666"
   id="stop88" />&#10;					</linearGradient>&#10;					<path
   style="fill:url(#SVGID_00000115515684043923898020000017899521380191987647_)"
   d="m 561.5,488.2 2.5,18.4 c 0,0 -11.7,7.8 -42.4,7.8 -5.1,0 -9.9,-0.3 -14.3,-1 l 18.3,4.5 0.4,-0.1 c 6.6,1.7 13.8,2.7 21.9,2.7 29.3,0 40.5,-7.8 40.5,-7.8 L 586,494.3 Z"
   id="path88" />&#10;				</g>&#10;				<path
   class="st3"
   d="m 516.8,364.8 c -47.7,0 -65.1,49.7 -65.1,80.4 v 0 c 0,0 -4,69.2 69.9,69.2 30.7,0 42.4,-7.8 42.4,-7.8 l -2.5,-18.4 c 0,0 -17,7.3 -36.8,7.3 -19.8,0 -48.3,-9.5 -48.3,-50.2 h 98.1 c 0,-0.1 11.2,-80.5 -57.7,-80.5 z m 33.2,60.6 h -73.7 c 0,0 3.3,-42.7 39.1,-42.7 41.3,0 34.6,42.7 34.6,42.7 z"
   id="path89" />&#10;				<polygon
   class="st23"
   points="561.5,488.2 564,506.6 588.5,512.8 586.1,494.3 "
   id="polygon89" />&#10;				<polygon
   class="st5"
   points="574.5,445.2 476.4,445.2 504.8,451.3 598.5,451.3 "
   id="polygon90" />&#10;			</g>&#10;		</g>&#10;</svg>
